<svg width="139" height="57" viewBox="0 0 139 57" fill="none" xmlns="http://www.w3.org/2000/svg">
<path d="M46 2H0V48H46V2Z" fill="#F7DF1E"/>
<path d="M30.9003 37.9377C31.8269 39.4506 33.0324 40.5626 35.1644 40.5626C36.9555 40.5626 38.0997 39.6674 38.0997 38.4305C38.0997 36.9483 36.9241 36.4233 34.9527 35.561L33.8721 35.0974C30.7528 33.7685 28.6806 32.1037 28.6806 28.5844C28.6806 25.3424 31.1508 22.8745 35.0111 22.8745C37.7594 22.8745 39.7352 23.831 41.1591 26.3355L37.793 28.4967C37.0519 27.1678 36.2524 26.6443 35.0111 26.6443C33.745 26.6443 32.9426 27.4475 32.9426 28.4967C32.9426 29.7935 33.7458 30.3185 35.6004 31.1217L36.681 31.5846C40.3537 33.1595 42.4273 34.7651 42.4273 38.375C42.4273 42.2668 39.3702 44.3989 35.2645 44.3989C31.2501 44.3989 28.6565 42.4858 27.3875 39.9785L30.9003 37.9377ZM15.6305 38.3123C16.3096 39.517 16.9273 40.5356 18.4124 40.5356C19.8326 40.5356 20.7285 39.9799 20.7285 37.8194V23.1213H25.051V37.8778C25.051 42.3537 22.4268 44.3908 18.5964 44.3908C15.1355 44.3908 13.1312 42.5997 12.1119 40.4425L15.6305 38.3123Z" fill="black"/>
<path d="M138.811 24.6257C138.811 28.1743 134.363 31.5373 127.545 33.6228C129.118 40.5672 128.419 46.0922 125.337 47.861C124.627 48.2759 123.796 48.4725 122.889 48.4725V46.0376C123.392 46.0376 123.796 45.9393 124.135 45.7537C125.621 44.902 126.266 41.6591 125.763 37.4881C125.643 36.4617 125.446 35.3808 125.206 34.278C123.064 34.8021 120.726 35.2061 118.267 35.4681C116.792 37.4881 115.262 39.3225 113.721 40.9275C117.284 44.236 120.627 46.0485 122.9 46.0485V48.4834C119.895 48.4834 115.961 46.3433 111.984 42.6309C108.006 46.3215 104.072 48.4397 101.067 48.4397V46.0048C103.329 46.0048 106.684 44.2032 110.246 40.9166C108.716 39.3116 107.186 37.4881 105.733 35.4681C103.263 35.2061 100.925 34.8021 98.783 34.267C98.5316 35.3589 98.3459 36.4181 98.2147 37.4335C97.7011 41.6045 98.335 44.8474 99.8102 45.71C100.138 45.9065 100.564 45.9939 101.067 45.9939V48.4288C100.149 48.4288 99.3184 48.2323 98.5972 47.8173C95.5265 46.0485 94.8381 40.5345 96.4226 33.6119C89.6256 31.5155 85.1999 28.1634 85.1999 24.6257C85.1999 21.077 89.6475 17.714 96.4663 15.6285C94.8927 8.68414 95.5921 3.15919 98.6737 1.39034C99.384 0.975418 100.215 0.778877 101.132 0.778877C104.138 0.778877 108.071 2.91898 112.049 6.63139C116.027 2.94081 119.961 0.822556 122.966 0.822556C123.884 0.822556 124.714 1.0191 125.436 1.43401C128.506 3.20287 129.195 8.7169 127.61 15.6395C134.385 17.725 138.811 21.088 138.811 24.6257ZM124.583 31.9086C124.179 30.5 123.676 29.0478 123.108 27.5956C122.66 28.4691 122.19 29.3426 121.676 30.2161C121.174 31.0896 120.638 31.9413 120.103 32.7712C121.655 32.5419 123.152 32.258 124.583 31.9086ZM119.578 20.28C118.726 18.8059 117.852 17.4083 116.945 16.109C115.317 15.967 113.666 15.8906 112.005 15.8906C110.355 15.8906 108.705 15.967 107.088 16.098C106.181 17.3974 105.296 18.7841 104.444 20.2472C103.613 21.6776 102.859 23.1298 102.171 24.5929C102.848 26.0561 103.613 27.5192 104.433 28.9496C105.285 30.4236 106.159 31.8212 107.066 33.1206C108.694 33.2625 110.344 33.3389 112.005 33.3389C113.656 33.3389 115.306 33.2625 116.923 33.1315C117.83 31.8321 118.715 30.4454 119.567 28.9823C120.398 27.5519 121.152 26.0997 121.84 24.6366C121.152 23.1735 120.398 21.7103 119.578 20.28ZM123.108 21.6994C123.698 20.2363 124.201 18.7732 124.616 17.3537C123.184 17.0043 121.676 16.7095 120.114 16.4802C120.649 17.321 121.185 18.1835 121.687 19.068C122.19 19.9415 122.66 20.8259 123.108 21.6994ZM112.027 10.049C111.011 11.0972 109.995 12.2655 108.989 13.543C109.973 13.4994 110.978 13.4666 111.995 13.4666C113.022 13.4666 114.038 13.4884 115.032 13.543C114.049 12.2655 113.033 11.0972 112.027 10.049ZM103.897 16.4802C102.345 16.7095 100.848 16.9934 99.4168 17.3428C99.8211 18.7513 100.324 20.2035 100.892 21.6557C101.34 20.7822 101.81 19.9087 102.324 19.0352C102.837 18.1617 103.362 17.31 103.897 16.4802ZM111.973 39.2024C112.989 38.1542 114.005 36.9858 115.011 35.7083C114.027 35.752 113.022 35.7848 112.005 35.7848C110.978 35.7848 109.962 35.7629 108.968 35.7083C109.951 36.9858 110.967 38.1542 111.973 39.2024ZM103.886 32.7712C103.351 31.9304 102.815 31.0678 102.313 30.1834C101.81 29.3099 101.34 28.4364 100.892 27.5629C100.302 29.026 99.7993 30.4891 99.384 31.9086C100.816 32.247 102.324 32.5419 103.886 32.7712ZM93.9967 19.1007C90.1283 20.7495 87.6258 22.9114 87.6258 24.6257C87.6258 26.3399 90.1283 28.5128 93.9967 30.1506C94.9365 30.5546 95.9636 30.9149 97.0236 31.2534C97.6465 29.1133 98.4661 26.8859 99.4824 24.6038C98.477 22.3327 97.6684 20.1162 97.0564 17.987C95.9746 18.3255 94.9474 18.6967 93.9967 19.1007ZM99.8758 3.49768C98.3896 4.34935 97.7449 7.59225 98.2475 11.7633C98.3677 12.7896 98.5644 13.8706 98.8048 14.9734C100.947 14.4493 103.285 14.0453 105.744 13.7832C107.219 11.7633 108.749 9.92889 110.29 8.32381C106.727 5.0154 103.384 3.20287 101.111 3.20287C100.619 3.21378 100.204 3.31205 99.8758 3.49768ZM125.796 11.8179C126.31 7.64685 125.676 4.40394 124.201 3.54135C123.873 3.34481 123.447 3.25746 122.944 3.25746C120.682 3.25746 117.327 5.05907 113.765 8.34565C115.295 9.95073 116.825 11.7742 118.278 13.7942C120.748 14.0562 123.086 14.4602 125.228 14.9952C125.479 13.8924 125.676 12.8333 125.796 11.8179ZM130.003 19.1007C129.064 18.6967 128.036 18.3364 126.976 17.9979C126.353 20.138 125.534 22.3655 124.518 24.6475C125.523 26.9186 126.332 29.1352 126.944 31.2643C128.025 30.9259 129.053 30.5546 130.014 30.1506C133.883 28.5019 136.385 26.3399 136.385 24.6257C136.374 22.9114 133.872 20.7386 130.003 19.1007Z" fill="#61DAFB"/>
<path d="M111.995 19.6356C114.753 19.6356 116.988 21.8697 116.988 24.6256C116.988 27.3814 114.753 29.6155 111.995 29.6155C109.236 29.6155 107.001 27.3814 107.001 24.6256C107.001 21.8697 109.236 19.6356 111.995 19.6356Z" fill="#61DAFB"/>
</svg>
